{"accessors":[{"bufferView":0,"byteOffset":0,"componentType":5126,"count":1950,"max":[1,1,2.5],"min":[-1,-1,-2.5],"normalized":false,"type":"VEC3"},{"bufferView":1,"byteOffset":0,"componentType":5126,"count":1950,"max":[0.999969,1,0.042445,1],"min":[-0.999969,-0.999872,-0.031891,1],"normalized":false,"type":"VEC4"},{"bufferView":2,"byteOffset":0,"componentType":5126,"count":1950,"max":[1,1,1],"min":[-1,-1,-1],"normalized":false,"type":"VEC3"},{"bufferView":3,"byteOffset":0,"componentType":5126,"count":1950,"max":[1,1],"min":[0,0],"normalized":false,"type":"VEC2"},{"bufferView":4,"byteOffset":0,"componentType":5125,"count":10368,"max":[1949],"min":[0],"normalized":false,"type":"SCALAR"},{"bufferView":5,"byteOffset":0,"componentType":5126,"count":24,"max":[30,1,30],"min":[-30,-1,-30],"normalized":false,"type":"VEC3"},{"bufferView":6,"byteOffset":0,"componentType":5126,"count":24,"max":[0.999969,0,0.999969,1],"min":[-0.999969,-0.007936,-1,1],"normalized":false,"type":"VEC4"},{"bufferView":7,"byteOffset":0,"componentType":5126,"count":24,"max":[1,1,1],"min":[-1,-1,-1],"normalized":false,"type":"VEC3"},{"bufferView":8,"byteOffset":0,"componentType":5126,"count":24,"max":[1,1],"min":[0,0],"normalized":false,"type":"VEC2"},{"bufferView":9,"byteOffset":0,"componentType":5125,"count":36,"max":[23],"min":[0],"normalized":false,"type":"SCALAR"},{"bufferView":10,"byteOffset":0,"componentType":5126,"count":522,"max":[4.1,9.9145,4.1],"min":[-4.1,-9.9145,-4.1],"normalized":false,"type":"VEC3"},{"bufferView":11,"byteOffset":0,"componentType":5126,"count":522,"max":[0.999969,0,0.999969,1],"min":[-0.999969,-0.011223,-1,1],"normalized":false,"type":"VEC4"},{"bufferView":12,"byteOffset":0,"componentType":5126,"count":522,"max":[1,1,1],"min":[-1,-1,-1],"normalized":false,"type":"VEC3"},{"bufferView":13,"byteOffset":0,"componentType":5126,"count":522,"max":[1,1],"min":[0,0],"normalized":false,"type":"VEC2"},{"bufferView":14,"byteOffset":0,"componentType":5125,"count":2304,"max":[521],"min":[0],"normalized":false,"type":"SCALAR"},{"bufferView":15,"byteOffset":0,"componentType":5126,"count":2210,"max":[4.482916,4.4885,4.482916],"min":[-4.482916,-4.4885,-4.482916],"normalized":false,"type":"VEC3"},{"bufferView":16,"byteOffset":0,"componentType":5126,"count":2210,"max":[0.999969,0,0.999969,1],"min":[-0.999969,-0.011223,-1,1],"normalized":false,"type":"VEC4"},{"bufferView":17,"byteOffset":0,"componentType":5126,"count":2210,"max":[0.998995,1,0.999472],"min":[-0.998995,-1,-0.998773],"normalized":false,"type":"VEC3"},{"bufferView":18,"byteOffset":0,"componentType":5126,"count":2210,"max":[1,1],"min":[0,0],"normalized":false,"type":"VEC2"},{"bufferView":19,"byteOffset":0,"componentType":5125,"count":12672,"max":[2209],"min":[0],"normalized":false,"type":"SCALAR"},{"bufferView":20,"byteOffset":0,"componentType":5126,"count":24,"max":[9,22,8.5],"min":[-9,-22,-8.5],"normalized":false,"type":"VEC3"},{"bufferView":21,"byteOffset":0,"componentType":5126,"count":24,"max":[0.999969,0,0.999969,1],"min":[-0.999969,-0.007936,-1,1],"normalized":false,"type":"VEC4"},{"bufferView":22,"byteOffset":0,"componentType":5126,"count":24,"max":[1,1,1],"min":[-1,-1,-1],"normalized":false,"type":"VEC3"},{"bufferView":23,"byteOffset":0,"componentType":5126,"count":24,"max":[1,1],"min":[0,0],"normalized":false,"type":"VEC2"},{"bufferView":24,"byteOffset":0,"componentType":5125,"count":36,"max":[23],"min":[0],"normalized":false,"type":"SCALAR"},{"bufferView":25,"byteOffset":0,"componentType":5126,"count":24,"max":[1.5,5.5,1.5],"min":[-1.5,-5.5,-1.5],"normalized":false,"type":"VEC3"},{"bufferView":26,"byteOffset":0,"componentType":5126,"count":24,"max":[0.999969,0,0.999969,1],"min":[-0.999969,-0.007936,-1,1],"normalized":false,"type":"VEC4"},{"bufferView":27,"byteOffset":0,"componentType":5126,"count":24,"max":[1,1,1],"min":[-1,-1,-1],"normalized":false,"type":"VEC3"},{"bufferView":28,"byteOffset":0,"componentType":5126,"count":24,"max":[1,1],"min":[0,0],"normalized":false,"type":"VEC2"},{"bufferView":29,"byteOffset":0,"componentType":5125,"count":36,"max":[23],"min":[0],"normalized":false,"type":"SCALAR"},{"bufferView":30,"byteOffset":0,"componentType":5126,"count":24,"max":[1.5,5.5,1.5],"min":[-1.5,-5.5,-1.5],"normalized":false,"type":"VEC3"},{"bufferView":31,"byteOffset":0,"componentType":5126,"count":24,"max":[0.999969,0,0.999969,1],"min":[-0.999969,-0.007936,-1,1],"normalized":false,"type":"VEC4"},{"bufferView":32,"byteOffset":0,"componentType":5126,"count":24,"max":[1,1,1],"min":[-1,-1,-1],"normalized":false,"type":"VEC3"},{"bufferView":33,"byteOffset":0,"componentType":5126,"count":24,"max":[1,1],"min":[0,0],"normalized":false,"type":"VEC2"},{"bufferView":34,"byteOffset":0,"componentType":5125,"count":36,"max":[23],"min":[0],"normalized":false,"type":"SCALAR"},{"bufferView":35,"byteOffset":0,"componentType":5126,"count":24,"max":[0.25,0.25,0.25],"min":[-0.25,-0.25,-0.25],"normalized":false,"type":"VEC3"},{"bufferView":36,"byteOffset":0,"componentType":5126,"count":24,"max":[0.999969,0,0.999969,1],"min":[-0.999969,-0.007936,-1,1],"normalized":false,"type":"VEC4"},{"bufferView":37,"byteOffset":0,"componentType":5126,"count":24,"max":[1,1,1],"min":[-1,-1,-1],"normalized":false,"type":"VEC3"},{"bufferView":38,"byteOffset":0,"componentType":5126,"count":24,"max":[1,1],"min":[0,0],"normalized":false,"type":"VEC2"},{"bufferView":39,"byteOffset":0,"componentType":5125,"count":36,"max":[23],"min":[0],"normalized":false,"type":"SCALAR"}],"asset":{"generator":"Godot Engine v3.5.1.stable.official@6fed1ffa313c6760fa88b368ae580378daaef0f0","version":"2.0"},"bufferViews":[{"buffer":0,"byteLength":23400,"byteOffset":0},{"buffer":0,"byteLength":31200,"byteOffset":23400},{"buffer":0,"byteLength":23400,"byteOffset":54600},{"buffer":0,"byteLength":15600,"byteOffset":78000},{"buffer":0,"byteLength":41472,"byteOffset":93600},{"buffer":0,"byteLength":288,"byteOffset":135072},{"buffer":0,"byteLength":384,"byteOffset":135360},{"buffer":0,"byteLength":288,"byteOffset":135744},{"buffer":0,"byteLength":192,"byteOffset":136032},{"buffer":0,"byteLength":144,"byteOffset":136224},{"buffer":0,"byteLength":6264,"byteOffset":136368},{"buffer":0,"byteLength":8352,"byteOffset":142632},{"buffer":0,"byteLength":6264,"byteOffset":150984},{"buffer":0,"byteLength":4176,"byteOffset":157248},{"buffer":0,"byteLength":9216,"byteOffset":161424},{"buffer":0,"byteLength":26520,"byteOffset":170640},{"buffer":0,"byteLength":35360,"byteOffset":197160},{"buffer":0,"byteLength":26520,"byteOffset":232520},{"buffer":0,"byteLength":17680,"byteOffset":259040},{"buffer":0,"byteLength":50688,"byteOffset":276720},{"buffer":0,"byteLength":288,"byteOffset":327408},{"buffer":0,"byteLength":384,"byteOffset":327696},{"buffer":0,"byteLength":288,"byteOffset":328080},{"buffer":0,"byteLength":192,"byteOffset":328368},{"buffer":0,"byteLength":144,"byteOffset":328560},{"buffer":0,"byteLength":288,"byteOffset":328704},{"buffer":0,"byteLength":384,"byteOffset":328992},{"buffer":0,"byteLength":288,"byteOffset":329376},{"buffer":0,"byteLength":192,"byteOffset":329664},{"buffer":0,"byteLength":144,"byteOffset":329856},{"buffer":0,"byteLength":288,"byteOffset":330000},{"buffer":0,"byteLength":384,"byteOffset":330288},{"buffer":0,"byteLength":288,"byteOffset":330672},{"buffer":0,"byteLength":192,"byteOffset":330960},{"buffer":0,"byteLength":144,"byteOffset":331152},{"buffer":0,"byteLength":288,"byteOffset":331296},{"buffer":0,"byteLength":384,"byteOffset":331584},{"buffer":0,"byteLength":288,"byteOffset":331968},{"buffer":0,"byteLength":192,"byteOffset":332256},{"buffer":0,"byteLength":144,"byteOffset":332448}],"buffers":[{"byteLength":332592,"uri":"Spatial.tscn67550.bin"}],"cameras":[{"perspective":{"yfov":1.22173,"zfar":100,"znear":0.05},"type":"perspective"}],"extensionsRequired":["KHR_texture_transform"],"extensionsUsed":["KHR_lights_punctual","KHR_texture_transform"],"images":[{"uri":"textures/_albedo.png"}],"materials":[{"pbrMetallicRoughness":{"baseColorFactor":[0.003035,0,1,1],"baseColorTexture":{"extensions":{"KHR_texture_transform":{"offset":[0,0],"scale":[0.5,0.5]}},"index":0},"metallicFactor":0,"roughnessFactor":1}},{"pbrMetallicRoughness":{"baseColorFactor":[0.198069,0.006512,0.006512,1],"metallicFactor":0,"roughnessFactor":1}},{"pbrMetallicRoughness":{"baseColorFactor":[0.012983,0.291771,0.006512,1],"metallicFactor":0,"roughnessFactor":1}},{"pbrMetallicRoughness":{"baseColorFactor":[0.215861,0.095307,0.155926,1],"metallicFactor":0,"roughnessFactor":1}},{"pbrMetallicRoughness":{"baseColorFactor":[0.982251,1,0,1],"metallicFactor":0,"roughnessFactor":1}},{"pbrMetallicRoughness":{"baseColorFactor":[0,0,0,1],"metallicFactor":0,"roughnessFactor":1}},{"pbrMetallicRoughness":{"baseColorFactor":[1,0.000304,0.000304,1],"metallicFactor":0,"roughnessFactor":1}}],"meshes":[{"extras":{"targetNames":[]},"primitives":[{"attributes":{"NORMAL":2,"POSITION":0,"TANGENT":1,"TEXCOORD_0":3},"indices":4,"mode":4}]},{"extras":{"targetNames":[]},"primitives":[{"attributes":{"NORMAL":7,"POSITION":5,"TANGENT":6,"TEXCOORD_0":8},"indices":9,"material":0,"mode":4}]},{"extras":{"targetNames":[]},"primitives":[{"attributes":{"NORMAL":12,"POSITION":10,"TANGENT":11,"TEXCOORD_0":13},"indices":14,"material":1,"mode":4}]},{"extras":{"targetNames":[]},"primitives":[{"attributes":{"NORMAL":17,"POSITION":15,"TANGENT":16,"TEXCOORD_0":18},"indices":19,"material":2,"mode":4}]},{"extras":{"targetNames":[]},"primitives":[{"attributes":{"NORMAL":22,"POSITION":20,"TANGENT":21,"TEXCOORD_0":23},"indices":24,"material":3,"mode":4}]},{"extras":{"targetNames":[]},"primitives":[{"attributes":{"NORMAL":27,"POSITION":25,"TANGENT":26,"TEXCOORD_0":28},"indices":29,"material":4,"mode":4}]},{"extras":{"targetNames":[]},"primitives":[{"attributes":{"NORMAL":32,"POSITION":30,"TANGENT":31,"TEXCOORD_0":33},"indices":34,"material":5,"mode":4}]},{"extras":{"targetNames":[]},"primitives":[{"attributes":{"NORMAL":37,"POSITION":35,"TANGENT":36,"TEXCOORD_0":38},"indices":39,"material":6,"mode":4}]}],"nodes":[{"children":[1,6,9,12,15,18,19,20],"extensions":{},"name":"Spatial","rotation":[0.005783,0.006455,0.01656,0.999825],"scale":[0.935483,0.935483,0.935483]},{"children":[2,3,4],"extensions":{},"name":"Player","translation":[0,4.15078,0]},{"extensions":{},"mesh":0,"name":"MeshInstance","rotation":[0.707107,0,0,0.707107]},{"extensions":{},"name":"CollisionShape","rotation":[0.707107,0,0,0.707107]},{"children":[5],"extensions":{},"name":"Head","translation":[0,1.5,0]},{"camera":0,"extensions":{},"name":"Camera"},{"children":[7],"extensions":{},"name":"ground","translation":[-0.363274,0.98619,-0.325418]},{"children":[8],"extensions":{},"name":"CollisionShape2"},{"extensions":{},"mesh":1,"name":"MeshInstance2","translation":[0,0.020104,0]},{"children":[10],"extensions":{},"name":"tree"},{"children":[11],"extensions":{},"name":"CollisionShape3","translation":[-0.219458,10.081175,19.694931]},{"extensions":{},"mesh":2,"name":"MeshInstance3","translation":[0.456982,-1.402607,1.050331]},{"children":[13],"extensions":{},"name":"StaticBody"},{"children":[14],"extensions":{},"name":"CollisionShape4","scale":[1,0.979381,1],"translation":[0.083337,19.671034,20.523592]},{"extensions":{},"mesh":3,"name":"MeshInstance4","rotation":[0.989803,0.00297,0.007071,-0.142239],"scale":[1.849978,1.756948,1.713776],"translation":[-0.380579,-1.765537,-0.06769]},{"children":[16],"extensions":{},"name":"building"},{"children":[17],"extensions":{},"name":"CollisionShape5","translation":[-21.2495,3.11912,17.888599]},{"extensions":{},"mesh":4,"name":"MeshInstance5"},{"extensions":{},"mesh":5,"name":"MeshInstance6","rotation":[-0.011482,0.006119,0.715719,0.698267],"scale":[1.000681,1.495117,1.000079],"translation":[-21.344454,22.673641,10.731496]},{"extensions":{},"mesh":6,"name":"MeshInstance22","rotation":[-0.009674,0.006282,0.708935,0.705179],"scale":[1.18509,1.524344,1.000119],"translation":[-21.235182,14.958677,10.790249]},{"children":[21],"extensions":{},"name":"StaticBody2"},{"children":[22],"extensions":{},"name":"CollisionShape6","translation":[-11.827028,4.122355,15.982669]},{"extensions":{},"mesh":7,"name":"MeshInstance7","rotation":[0.000109,0.000977,0.00222,0.999997],"scale":[1.843212,2.090768,2.118538]}],"scene":0,"scenes":[{"nodes":[0]}],"textures":[{"source":0}]}